:FULLY-SPECIFIED
:FORCE-ALL-JOINTS-BE-3DOF
:DEGREES
849
root 3.87679 16.3105 28.1696 -9.40696 6.99431 -0.495847
lfemur -22.738 0.778091 -17.6874
ltibia 37.3014 -0 0
lfoot -7.62259 -13.057 -0.00665953
ltoes 2.41058 -0 0
rfemur -35.4477 -3.19902 0.730518
rtibia 105.957 -0 0
rfoot 37.0205 21.3152 0.0160497
rtoes -3.0606 0 0
lowerback 4.22538 2.98899 -2.94443
upperback 1.0711 3.86184 0.290244
thorax -1.47688 1.94046 1.73551
lowerneck -6.31123 -3.78751 2.45615
upperneck 9.05887 -5.47409 1.3487
head 4.06002 -2.55215 -0.281567
lclavicle 1.3073e-14 1.48063e-14 -3.90663e-31
lhumerus -50.5032 -10.5339 84.1485
lradius 55.8138 -0 0
lwrist 21.0852 0 0
lhand -2.96752 3.47551 0.001745
lfingers 7.12502 -0 0
lthumb 22.7451 32.1541 0.00153658
rclavicle 1.3073e-14 1.48063e-14 -3.90663e-31
rhumerus -38.7778 14.3891 -66.3778
rradius 50.7631 -0 0
rwrist 9.48666 0 0
rhand -36.6169 -33.0622 -0.0195438
rfingers 7.12502 -0 0
rthumb -9.70509 -62.8273 -0.0194155
850
root 3.88791 16.318 28.2666 -10.1446 8.09348 -0.27829
lfemur -21.736 1.0894 -18.2381
ltibia 37.3505 -0 0
lfoot -7.77289 -14.2331 -0.00683662
ltoes 3.88786 -0 0
rfemur -39.0379 -2.78902 0.748764
rtibia 107.43 -0 0
rfoot 36.4021 19.8865 0.0319466
rtoes -1.86962 0 0
lowerback 5.12641 2.59976 -3.33573
upperback 1.39123 3.29496 0.147746
thorax -1.62939 1.65739 1.8173
lowerneck -6.2352 -3.77358 2.43667
upperneck 9.00567 -5.46144 1.47364
head 4.03078 -2.54228 -0.233743
lclavicle 8.69032e-15 1.44087e-14 -7.9741e-31
lhumerus -49.4871 -11.4213 83.7631
lradius 55.6943 -0 0
lwrist 21.3805 0 0
lhand -2.53711 3.51387 0.0027184
lfingers 7.12502 -0 0
lthumb 23.1583 32.1433 0.00340705
rclavicle 8.69032e-15 1.44087e-14 -7.9741e-31
rhumerus -39.7388 13.3789 -65.4174
rradius 50.7043 -0 0
rwrist 9.20701 0 0
rhand -36.471 -33.183 -0.0345993
rfingers 7.12502 -0 0
rthumb -9.56439 -62.9732 -0.0353708
851
root 3.89411 16.3258 28.3597 -10.9042 9.21639 -0.103322
lfemur -20.6901 1.45445 -18.7109
ltibia 37.3359 -0 0
lfoot -7.84476 -15.5008 -0.00316398
ltoes 5.56421 -0 0
rfemur -42.6557 -2.35333 0.872119
rtibia 108.309 -0 0
rfoot 35.3132 18.0056 0.039529
rtoes -0.974414 0 0
lowerback 6.07149 2.19539 -3.70095
upperback 1.73086 2.70126 -0.00771021
thorax -1.77635 1.36017 1.88124
lowerneck -6.14235 -3.74701 2.42974
upperneck 8.93371 -5.43378 1.61923
head 3.99198 -2.52414 -0.179827
lclavicle 3.89044e-15 1.32832e-14 -1.09176e-30
lhumerus -48.383 -12.3213 83.3315
lradius 55.4905 -0 0
lwrist 21.6354 0 0
lhand -2.06339 3.58768 0.00287754
lfingers 7.12502 -0 0
lthumb 23.6131 32.1625 0.00487818
rclavicle 3.89044e-15 1.32832e-14 -1.09176e-30
rhumerus -40.7626 12.4265 -64.5539
rradius 50.7584 -0 0
rwrist 8.796 0 0
rhand -36.1521 -33.1229 -0.0430921
rfingers 7.12502 -0 0
rthumb -9.25663 -62.9469 -0.0452265
852
root 3.89746 16.3349 28.4494 -11.6531 10.3332 0.0250032
lfemur -19.6385 1.85683 -19.1074
ltibia 37.2651 -0 0
lfoot -7.84514 -16.8092 0.00201022
ltoes 7.35932 -0 0
rfemur -46.1538 -1.91523 1.06594
rtibia 108.486 -0 0
rfoot 33.8502 15.8615 0.0303656
rtoes -0.327327 0 0
lowerback 7.0234 1.78818 -4.03218
upperback 2.0755 2.0996 -0.168055
thorax -1.91573 1.05841 1.92941
lowerneck -6.04667 -3.71212 2.43074
upperneck 8.85022 -5.39629 1.77711
head 3.94876 -2.50058 -0.122491
lclavicle -7.62607e-16 1.15933e-14 -1.1689e-30
lhumerus -47.2243 -13.2218 82.8814
lradius 55.247 -0 0
lwrist 21.8558 0 0
lhand -1.54001 3.68297 0.00230883
lfingers 7.12502 -0 0
lthumb 24.1154 32.1951 0.00540638
rclavicle -7.62607e-16 1.15933e-14 -1.1689e-30
rhumerus -41.808 11.5008 -63.7401
rradius 50.8857 -0 0
rwrist 8.28529 0 0
rhand -35.6141 -32.935 -0.0440646
rfingers 7.12502 -0 0
rthumb -8.73735 -62.7948 -0.0473577
853
root 3.90004 16.3461 28.5362 -12.3585 11.4137 0.104639
lfemur -18.6191 2.2796 -19.4299
ltibia 37.1454 -0 0
lfoot -7.78082 -18.1071 0.00625275
ltoes 9.19288 -0 0
rfemur -49.3859 -1.50318 1.30131
rtibia 107.856 -0 0
rfoot 32.1085 13.6429 0.00568731
rtoes 0.119298 -0 0
lowerback 7.94464 1.38969 -4.32059
upperback 2.41043 1.50866 -0.324713
thorax -2.0455 0.761746 1.96378
lowerneck -5.96213 -3.67323 2.43501
upperneck 8.76239 -5.35417 1.93892
head 3.90625 -2.47449 -0.064402
lclavicle -4.70473e-15 9.50225e-15 -9.8144e-31
lhumerus -46.0455 -14.1124 82.4421
lradius 55.0087 -0 0
lwrist 22.0479 0 0
lhand -0.96062 3.78578 0.0012685
lfingers 7.12502 -0 0
lthumb 24.6709 32.2241 0.00469187
rclavicle -4.70473e-15 9.50225e-15 -9.8144e-31
rhumerus -42.8365 10.5711 -62.9296
rradius 51.0463 -0 0
rwrist 7.70658 0 0
rhand -34.8108 -32.6725 -0.0373871
rfingers 7.12502 -0 0
rthumb -7.96204 -62.563 -0.0409695
854
root 3.9039 16.3603 28.6206 -12.9872 12.4277 0.135458
lfemur -17.6696 2.70558 -19.6818
ltibia 36.9844 -0 0
lfoot -7.65843 -19.3433 0.00673791
ltoes 10.9846 -0 0
rfemur -52.2063 -1.15065 1.5548
rtibia 106.313 -0 0
rfoot 30.1826 11.5378 -0.0169112
rtoes 0.413121 -0 0
lowerback 8.79753 1.01088 -4.55646
upperback 2.72067 0.946942 -0.468597
thorax -2.16364 0.479818 1.98628
lowerneck -5.90273 -3.63464 2.43789
upperneck 8.67736 -5.31272 2.09636
head 3.86959 -2.44875 -0.00821668
lclavicle -7.37184e-15 7.17363e-15 -5.57046e-31
lhumerus -44.8829 -14.9843 82.0451
lradius 54.8203 -0 0
lwrist 22.2177 0 0
lhand -0.31887 3.88216 0.000238892
lfingers 7.12502 -0 0
lthumb 25.2856 32.2329 0.00275004
rclavicle -7.37184e-15 7.17363e-15 -5.57046e-31
rhumerus -43.8121 9.60747 -62.0768
rradius 51.2004 -0 0
rwrist 7.09155 0 0
rhand -33.6962 -32.3882 -0.0230444
rfingers 7.12502 -0 0
rthumb -6.88616 -62.2974 -0.0255548
855
root 3.91112 16.3785 28.7032 -13.5055 13.3453 360.119
lfemur -16.8275 3.11758 -19.868
ltibia 36.7894 0 0
lfoot -7.48443 -20.4669 0
ltoes 12.6542 0 0
rfemur -54.4701 -0.895408 1.80721
rtibia 103.749 0 0
rfoot 28.1646 9.73185 0
rtoes 0.601799 0 0
lowerback 9.5442 0.662239 -4.72927
upperback 2.99097 0.432771 -0.590153
thorax -2.26813 0.222285 1.99879
lowerneck -5.88246 -3.60063 2.43466
upperneck 8.60225 -5.27727 2.24114
head 3.84389 -2.42627 0.0434165
lclavicle -8.19987e-15 4.77083e-15 0
lhumerus -43.7742 -15.8302 81.7234
lradius 54.7266 0 0
lwrist 22.3715 0 0
lhand 0.391591 3.95817 0
lfingers 7.12502 0 0
lthumb 25.9654 32.2045 0
rclavicle -8.19987e-15 4.77083e-15 0
rhumerus -44.7012 8.58011 -61.1365
rradius 51.3081 0 0
rwrist 6.47186 0 0
rhand -32.2241 -32.1349 0
rfingers 7.12502 0 0
rthumb -5.46513 -782.044 0
856
root 3.92158 16.404 28.7825 -13.9185 14.2138 0.0196222
lfemur -16.0687 3.52171 -19.9481
ltibia 36.4886 -0 0
lfoot -7.16212 -21.5685 -0.0144827
ltoes 14.3616 -0 0
rfemur -56.0673 -0.596776 1.89335
rtibia 99.6392 -0 0
rfoot 25.84 7.94997 0.113598
rtoes 0.84243 -0 0
lowerback 10.1801 0.322369 -4.79794
upperback 3.22043 -0.0555975 -0.680393
thorax -2.35467 -0.0216424 1.993
lowerneck -5.90043 -3.57275 2.42424
upperneck 8.55554 -5.2507 2.37591
head 3.8356 -2.40801 0.0913371
lclavicle -6.87339e-15 1.60651e-15 7.54854e-31
lhumerus -42.6751 -16.6583 81.4855
lradius 54.6766 -0 0
lwrist 22.4904 0 0
lhand 1.21269 4.02021 0.000756367
lfingers 7.12502 -0 0
lthumb 26.7504 32.1398 -0.00259621
rclavicle -6.87339e-15 1.60651e-15 7.54854e-31
rhumerus -45.5578 7.51109 -60.1244
rradius 51.3837 -0 0
rwrist 5.7395 0 0
rhand -30.2618 -31.8778 0.0254568
rfingers 7.12502 -0 0
rthumb -3.56999 -61.7782 0.0248966
857
root 3.93339 16.4371 28.8577 -14.2599 15.0745 -0.172774
lfemur -15.3502 3.93164 -19.9053
ltibia 36.0512 -0 0
lfoot -6.65332 -22.7237 -0.0276483
ltoes 16.2317 -0 0
rfemur -57.0916 -0.181955 1.78135
rtibia 93.9023 -0 0
rfoot 23.0501 5.92899 0.275647
rtoes 1.14502 -0 0
lowerback 10.736 -0.0280075 -4.7569
upperback 3.4218 -0.542049 -0.744088
thorax -2.42341 -0.264218 1.9643
lowerneck -5.9439 -3.5477 2.41043
upperneck 8.53705 -5.22931 2.50896
head 3.84231 -2.39174 0.138189
lclavicle -3.78867e-15 -2.69373e-15 1.615e-30
lhumerus -41.5391 -17.4799 81.3054
lradius 54.6134 -0 0
lwrist 22.5626 0 0
lhand 2.15276 4.08282 0.00166906
lfingers 7.12502 -0 0
lthumb 27.6489 32.0538 -0.0043403
rclavicle -3.78867e-15 -2.69373e-15 1.615e-30
rhumerus -46.4322 6.43469 -59.0854
rradius 51.4673 -0 0
rwrist 4.8303 0 0
rhand -27.806 -31.5581 0.0425738
rfingers 7.12502 -0 0
rthumb -1.19732 -61.4508 0.03691
858
root 3.946 16.4742 28.9298 -14.5372 15.8891 -0.416893
lfemur -14.6815 4.34266 -19.7803
ltibia 35.5469 -0 0
lfoot -6.05242 -23.8591 -0.0325655
ltoes 18.131 -0 0
rfemur -57.7026 0.216048 1.6585
rtibia 87.0999 -0 0
rfoot 19.9743 3.87565 0.400679
rtoes 1.33658 -0 0
lowerback 11.2277 -0.374436 -4.64832
upperback 3.60034 -1.01145 -0.792013
thorax -2.47913 -0.497943 1.92006
lowerneck -6.00911 -3.52253 2.39582
upperneck 8.52588 -5.20857 2.64042
head 3.85586 -2.37555 0.184029
lclavicle 5.5084e-16 -7.49701e-15 2.21588e-30
lhumerus -40.4015 -18.2943 81.1664
lradius 54.5732 -0 0
lwrist 22.6051 0 0
lhand 3.16775 4.14426 0.00233792
lfingers 7.12502 -0 0
lthumb 28.6186 31.9515 -0.00495654
rclavicle 5.5084e-16 -7.49701e-15 2.21588e-30
rhumerus -47.2878 5.33865 -58.0199
rradius 51.5579 -0 0
rwrist 3.84173 0 0
rhand -25.0047 -31.1924 0.0484171
rfingers 7.12502 -0 0
rthumb 1.50912 -61.0708 0.0367881
859
root 3.95882 16.5116 29.0003 -14.7566 16.6196 -0.670953
lfemur -14.0729 4.75127 -19.6141
ltibia 35.045 -0 0
lfoot -5.45396 -24.9008 -0.0274783
ltoes 19.9265 -0 0
rfemur -58.0575 0.469646 1.71356
rtibia 79.7938 -0 0
rfoot 16.797 2.00391 0.436568
rtoes 1.24413 -0 0
lowerback 11.6713 -0.70149 -4.51431
upperback 3.76141 -1.44856 -0.834951
thorax -2.52665 -0.715295 1.86768
lowerneck -6.09228 -3.49425 2.38298
upperneck 8.50115 -5.18384 2.77042
head 3.8681 -2.35753 0.22891
lclavicle 5.6417e-15 -1.21705e-14 2.31629e-30
lhumerus -39.2975 -19.0999 81.0527
lradius 54.5921 -0 0
lwrist 22.6345 0 0
lhand 4.21363 4.20282 0.00252033
lfingers 7.12502 -0 0
lthumb 29.6175 31.8377 -0.00440071
rclavicle 5.6417e-15 -1.21705e-14 2.31629e-30
rhumerus -48.0886 4.20932 -56.9295
rradius 51.6547 -0 0
rwrist 2.87124 0 0
rhand -22.006 -30.7975 0.0424677
rfingers 7.12502 -0 0
rthumb 4.40557 -60.6468 0.0268653
860
root 3.9713 16.5455 29.0703 -14.9223 17.2284 -0.892818
lfemur -13.5351 5.15505 -19.4478
ltibia 34.6151 -0 0
lfoot -4.95243 -25.7751 -0.0156286
ltoes 21.4848 -0 0
rfemur -58.3127 0.45234 2.13405
rtibia 72.5456 -0 0
rfoot 13.7054 0.532603 0.367516
rtoes 0.69468 -0 0
lowerback 12.0835 -0.993044 -4.39692
upperback 3.91056 -1.83808 -0.883709
thorax -2.57091 -0.908743 1.81459
lowerneck -6.18964 -3.4599 2.37451
upperneck 8.442 -5.15039 2.89904
head 3.87088 -2.33577 0.272883
lclavicle 1.09805e-14 -1.60812e-14 1.86205e-30
lhumerus -38.262 -19.8948 80.9495
lradius 54.7061 -0 0
lwrist 22.6675 0 0
lhand 5.24635 4.25675 0.00213159
lfingers 7.12502 -0 0
lthumb 30.6033 31.7172 -0.00293245
rclavicle 1.09805e-14 -1.60812e-14 1.86205e-30
rhumerus -48.7993 3.03155 -55.8168
rradius 51.7566 -0 0
rwrist 2.0163 0 0
rhand -18.9579 -30.3899 0.0274914
rfingers 7.12502 -0 0
rthumb 7.34838 -60.1867 0.0118335
